<svg xmlns="http://www.w3.org/2000/svg" viewBox="0 0 52 77.5"><defs><style>.cls-1,.cls-4{fill:#cca049;}.cls-2{fill:#a8caf0;}.cls-3{fill:#93bae6;}.cls-4,.cls-5{opacity:0.6;}.cls-5{fill:#451bb8;}.cls-6{fill:#fffbf0;}.cls-7,.cls-8,.cls-9{fill:none;stroke:#222221;}.cls-7,.cls-9{stroke-miterlimit:10;}.cls-8{stroke-linecap:round;stroke-linejoin:round;}.cls-8,.cls-9{stroke-width:0.5px;}</style></defs><g id="Capa_2" data-name="Capa 2"><g id="OBJECTS"><path class="cls-1" d="M25.92,0c-3,0-5,.73-5,1.24s.9,14.22.9,14.22,2.73.32,4.17.32,4.17-.32,4.17-.32.9-13.7.9-14.22S28.91,0,25.92,0Z"/><path class="cls-2" d="M46,33.59H41c-4.9,0-9.33-4.44-9.33-10.41V9.56H20.35V23.18c0,6-4.43,10.41-9.33,10.41H6c-1.69,0-6,1.07-6,7.8V67.26c0,2.6,1.84,4.13,3.37,4.13a3.18,3.18,0,0,1,3.06,3.06H45.57a3.18,3.18,0,0,1,3.06-3.06c1.53,0,3.37-1.53,3.37-4.13V41.39C52,34.66,47.71,33.59,46,33.59Z"/><path class="cls-3" d="M47.87,75.58A1.92,1.92,0,0,1,46,77.5H6a1.92,1.92,0,0,1-1.91-1.92h0A1.92,1.92,0,0,1,6,73.66H46a1.92,1.92,0,0,1,1.91,1.92Z"/><path class="cls-4" d="M30.55,9.56h-9.1l.38,5.9s2.73.32,4.17.32,4.17-.32,4.17-.32Z"/><path class="cls-3" d="M33.52,9.56a1.67,1.67,0,0,1-1.67,1.67H20.15a1.67,1.67,0,0,1-1.67-1.67h0a1.67,1.67,0,0,1,1.67-1.67h11.7a1.67,1.67,0,0,1,1.67,1.67Z"/><path class="cls-5" d="M3,51.32V67c0,2.1,1.58,2.49,3.36,2.49H45.67c1.78,0,3.36-.39,3.36-2.49V51.32Z"/><rect class="cls-6" x="8.95" y="41.05" width="34.11" height="24.81" rx="1.76"/><circle class="cls-7" cx="26" cy="53.45" r="8.98"/><polygon class="cls-8" points="26 44.56 28 50.72 34.48 50.72 29.24 54.53 31.24 60.69 26 56.88 20.76 60.69 22.76 54.53 17.52 50.72 24 50.72 26 44.56"/><line class="cls-9" x1="24.01" y1="50.72" x2="22.76" y2="54.53"/><line class="cls-9" x1="28" y1="50.72" x2="29.24" y2="54.53"/><line class="cls-9" x1="24.04" y1="50.72" x2="27.96" y2="50.72"/><line class="cls-9" x1="26" y1="56.88" x2="29.24" y2="54.53"/><line class="cls-9" x1="26" y1="56.88" x2="22.76" y2="54.53"/></g></g></svg>