<svg xmlns="http://www.w3.org/2000/svg" viewBox="0 0 99.83 99.83"><defs><style>.cls-1{fill:#e8bd54;}.cls-2{fill:#d4ad4c;}.cls-3{fill:#cca049;}.cls-4{fill:#ffc95e;}.cls-5{opacity:0.4;}.cls-6{fill:none;stroke:#222221;stroke-linecap:round;stroke-linejoin:round;stroke-width:0.5px;}.cls-7{fill:#222221;}</style></defs><g id="Capa_2" data-name="Capa 2"><g id="OBJECTS"><polygon class="cls-1" points="13.89 13.89 37.28 51.84 51.84 37.28 13.89 13.89"/><polygon class="cls-1" points="85.94 85.94 62.55 47.99 47.99 62.55 85.94 85.94"/><polygon class="cls-1" points="13.89 85.94 51.84 62.55 37.28 47.99 13.89 85.94"/><polygon class="cls-1" points="85.94 13.89 47.99 37.28 62.55 51.84 85.94 13.89"/><polygon class="cls-2" points="49.92 0 39.83 42.5 60 42.5 49.92 0"/><polygon class="cls-2" points="49.92 99.83 60 57.33 39.83 57.33 49.92 99.83"/><polygon class="cls-2" points="0 49.92 42.5 60 42.5 39.83 0 49.92"/><polygon class="cls-2" points="99.83 49.92 57.33 39.83 57.33 60 99.83 49.92"/><circle class="cls-3" cx="49.92" cy="49.92" r="21.81" transform="translate(-20.68 49.92) rotate(-45)"/><circle class="cls-4" cx="49.92" cy="49.92" r="18.58"/><g class="cls-5"><line class="cls-6" x1="50.01" y1="34.03" x2="50.01" y2="37.23"/><line class="cls-6" x1="50.01" y1="62.81" x2="50.01" y2="66.01"/><line class="cls-6" x1="43.89" y1="35.25" x2="45.12" y2="38.2"/><line class="cls-6" x1="54.91" y1="61.83" x2="56.13" y2="64.79"/><line class="cls-6" x1="38.71" y1="38.71" x2="40.97" y2="40.97"/><line class="cls-6" x1="59.06" y1="59.06" x2="61.32" y2="61.32"/><line class="cls-6" x1="35.24" y1="43.9" x2="38.2" y2="45.12"/><line class="cls-6" x1="61.83" y1="54.91" x2="64.79" y2="56.14"/><line class="cls-6" x1="34.02" y1="50.02" x2="37.22" y2="50.02"/><line class="cls-6" x1="62.8" y1="50.02" x2="66" y2="50.02"/><line class="cls-6" x1="35.24" y1="56.14" x2="38.2" y2="54.91"/><line class="cls-6" x1="61.83" y1="45.12" x2="64.79" y2="43.9"/><line class="cls-6" x1="38.71" y1="61.32" x2="40.97" y2="59.06"/><line class="cls-6" x1="59.06" y1="40.97" x2="61.32" y2="38.71"/><line class="cls-6" x1="43.89" y1="64.79" x2="45.12" y2="61.83"/><line class="cls-6" x1="54.91" y1="38.2" x2="56.13" y2="35.25"/></g><g class="cls-5"><path class="cls-6" d="M60.69,49.92s-4.82,6.23-10.77,6.23-10.77-6.23-10.77-6.23S44,43.68,49.92,43.68,60.69,49.92,60.69,49.92Z"/><path class="cls-7" d="M49.92,56.15a6.24,6.24,0,1,1,6.23-6.23A6.25,6.25,0,0,1,49.92,56.15Zm0-10.53a4.3,4.3,0,1,0,4.3,4.3A4.31,4.31,0,0,0,49.92,45.62Z"/><path class="cls-7" d="M51.83,49a.92.92,0,0,1-.91-.92.88.88,0,0,1,.15-.51,2.5,2.5,0,0,0-1.15-.28,2.61,2.61,0,1,0,2.6,2.61,2.76,2.76,0,0,0-.21-1A.87.87,0,0,1,51.83,49Z"/></g></g></g></svg>