<svg xmlns="http://www.w3.org/2000/svg" viewBox="0 0 75.42 89.28"><defs><style>.cls-1,.cls-2{fill:#683ddb;}.cls-1{opacity:0.4;}.cls-2{opacity:0.8;}.cls-3{fill:#31253b;}.cls-4{fill:#e7cc7c;}.cls-5{fill:#cca049;}</style></defs><g id="Capa_2" data-name="Capa 2"><g id="OBJECTS"><polygon class="cls-1" points="37.71 0 0 44.64 37.71 89.28 75.42 44.64 37.71 0"/><polygon class="cls-2" points="37.71 5.98 5.05 44.64 37.71 83.3 70.37 44.64 37.71 5.98"/><circle class="cls-3" cx="37.71" cy="44.64" r="18.53" transform="translate(-14.35 71.18) rotate(-76.82)"/><path class="cls-4" d="M46.66,34.47a9.88,9.88,0,0,1,.69,3.62,10.05,10.05,0,0,1-20.1,0,9.73,9.73,0,0,1,.31-2.42,13.56,13.56,0,1,0,19.1-1.2Z"/><path class="cls-5" d="M37.71,16.47A15.57,15.57,0,0,1,23.54,7.34,14.76,14.76,0,0,0,23.28,10a14.43,14.43,0,0,0,28.86,0,14.76,14.76,0,0,0-.26-2.68A15.57,15.57,0,0,1,37.71,16.47Z"/><path class="cls-5" d="M37.71,72.8a15.56,15.56,0,0,1,14.17,9.14,14.87,14.87,0,0,0,.26-2.69,14.43,14.43,0,0,0-28.86,0,14.87,14.87,0,0,0,.26,2.69A15.56,15.56,0,0,1,37.71,72.8Z"/></g></g></svg>