<svg xmlns="http://www.w3.org/2000/svg" viewBox="0 0 86.14 76.72"><defs><style>.cls-1{fill:#cca049;}.cls-2{fill:#ba2f20;}.cls-3{fill:#2e3330;}.cls-4{fill:#683ddb;}.cls-5{fill:#c1adf7;opacity:0.4;}.cls-6{fill:#cc4f41;}</style></defs><g id="Capa_2" data-name="Capa 2"><g id="OBJECTS"><path class="cls-1" d="M49.1,30.21S73.86,22.59,85,14.38c0,0-4.06,9.17-5.8,10.35s-30.77,9.83-30.77,9.83Z"/><path class="cls-2" d="M49.06,32.69s24.85-6,36.3-13.59c0,0-4.48,9-6.26,10.06S48.21,37,48.21,37Z"/><path class="cls-1" d="M48.94,34.91S73.78,31,85.54,24.34c0,0-5,8.69-6.82,9.62s-30.9,5.28-30.9,5.28Z"/><path class="cls-2" d="M48.61,37.43s24.73-2.34,36.69-8.24c0,0-5.38,8.43-7.23,9.25s-30.78,3.28-30.78,3.28Z"/><path class="cls-1" d="M49.46,40s24.62-1.3,36.68-6.73c0,0-5.62,8.26-7.48,9S48,44.3,48,44.3Z"/><path class="cls-2" d="M48.93,42.56s24.39.31,36.57-4.37c0,0-6,8-7.84,8.59s-30.39,0-30.39,0Z"/><path class="cls-1" d="M48.16,44.51s23.32,2.37,35.28-1.2c0,0-6.22,7.33-8.06,7.79s-29.07-2.6-29.07-2.6Z"/><path class="cls-2" d="M47.38,46.91s22.91,4,34.91,1.13c0,0-6.52,5.73-8.36,6.07s-28.58-3.29-28.58-3.29Z"/><path class="cls-1" d="M37,30.21S12.28,22.59,1.11,14.38c0,0,4.06,9.17,5.8,10.35s30.76,9.83,30.76,9.83Z"/><path class="cls-2" d="M37.08,32.69S12.23,26.64.78,19.1c0,0,4.48,9,6.26,10.06S37.93,37,37.93,37Z"/><path class="cls-1" d="M37.2,34.91S12.36,31,.6,24.34c0,0,5,8.69,6.82,9.62s30.9,5.28,30.9,5.28Z"/><path class="cls-2" d="M37.53,37.43S12.79,35.09.84,29.19c0,0,5.38,8.43,7.23,9.25s30.78,3.28,30.78,3.28Z"/><path class="cls-1" d="M36.68,40S12.06,38.74,0,33.31c0,0,5.61,8.26,7.47,9s30.67,2,30.67,2Z"/><path class="cls-2" d="M37.21,42.56S12.82,42.87.64,38.19c0,0,6,8,7.84,8.59s30.39,0,30.39,0Z"/><path class="cls-1" d="M38,44.51S14.66,46.88,2.7,43.31c0,0,6.22,7.33,8.06,7.79s29.07-2.6,29.07-2.6Z"/><path class="cls-2" d="M38.76,46.91S15.85,50.86,3.85,48c0,0,6.52,5.73,8.36,6.07s28.58-3.29,28.58-3.29Z"/><path class="cls-3" d="M61.12,11.94C60.11,4.73,58.45,1.7,57.22,1a11.75,11.75,0,0,0-2.87-1,14.2,14.2,0,0,1,4,6.25l-1.8-1.44a22.7,22.7,0,0,1,2,3.93c.1.85.42,3.9.42,3.9a6.29,6.29,0,0,0-1.35.74c-.19.24-9.47,19.74-9.47,19.74l1.53,1.23S62.17,12.81,62.07,12.42,61.12,11.94,61.12,11.94Z"/><path class="cls-3" d="M27.22,12.64s.32-3.05.42-3.9a22.7,22.7,0,0,1,2-3.93L27.81,6.25a14.29,14.29,0,0,1,4-6.25,11.75,11.75,0,0,0-2.87,1C27.69,1.7,26,4.73,25,11.94c0,0-.84.1-.95.48S36.51,34.35,36.51,34.35L38,33.12s-9.28-19.5-9.47-19.74A6.29,6.29,0,0,0,27.22,12.64Z"/><path class="cls-3" d="M57.33,52.43s4.17,1.65,4.66,2,2.76,10.72,2.61,10.84a10.19,10.19,0,0,1-1.79.16,28.53,28.53,0,0,1-1.91,7.17c-1.37,2.94-6.07,4.08-6.07,4.08s3.73-2.2,4.6-4.69l-1.84.41a20.44,20.44,0,0,0,2.25-2.73c-.1-.2-2,.41-2,.41s2.92-2.61,2.61-2.85-1.28,0-1.28,0L61,64.05s-1.59.16-1.64-.45.47-7.21.33-7.54a19,19,0,0,0-3-1.79l.56-1.84"/><path class="cls-3" d="M28.81,52.43s-4.17,1.65-4.66,2-2.76,10.72-2.61,10.84a10.19,10.19,0,0,0,1.79.16,28.78,28.78,0,0,0,1.9,7.17c1.38,2.94,6.08,4.08,6.08,4.08s-3.73-2.2-4.6-4.69l1.84.41a20.44,20.44,0,0,1-2.25-2.73c.1-.2,2,.41,2,.41s-2.92-2.61-2.61-2.85,1.28,0,1.28,0l-1.85-3.22s1.59.16,1.64-.45-.47-7.21-.34-7.54a19.47,19.47,0,0,1,3-1.79l-.56-1.84"/><path class="cls-3" d="M40.86,15.34s-2.47-2,0-5.35c0,0-2.55,1.28-2.47,3.35A6.45,6.45,0,0,0,39.63,16Z"/><path class="cls-3" d="M49.48,17.61c-.56-1.26-2.35-3.23-6.41-3.23s-5.85,2-6.41,3.23,2,6.48,2,6.48L43.07,24l4.42.14S50,18.87,49.48,17.61Z"/><path class="cls-3" d="M50.62,25.19H35.52s-6.84,16.3-6.28,23.37,8.59,13.57,13.83,13.57,13.27-6.5,13.83-13.57S50.62,25.19,50.62,25.19Z"/><path class="cls-4" d="M43.07,29.52c-1.77,0-3.55.42-3.7.86s3.17,4,3.7,4,3.86-3.54,3.7-4S44.84,29.52,43.07,29.52Z"/><path class="cls-4" d="M42.6,62.74V36.12c0-.91-4-4.74-5-5.6s-3.89-.45-4.89.45S27.45,42.52,27.45,48.3,33,62.74,42.6,62.74Z"/><path class="cls-4" d="M43.54,62.74V36.12c0-.91,4-4.74,5-5.6s3.89-.45,4.89.45,5.28,11.55,5.28,17.33S53.11,62.74,43.54,62.74Z"/><path class="cls-5" d="M30.77,39.26S23.19,55.79,40.89,61.45C40.89,61.45,27.48,57,30.77,39.26Z"/><path class="cls-4" d="M53.89,25.33c-.82-2-5.7-5.93-10.82-5.93s-10,4-10.82,5.93a2.18,2.18,0,0,0,1.82,3.2h18A2.18,2.18,0,0,0,53.89,25.33Z"/><path class="cls-5" d="M36.87,27.74c-1.24,0-3.46-.5-3.59-1.75s2.17-3.53,4.91-4.7c0,0-3.48,2.12-3.81,4.25C34.14,27.09,36.87,27.74,36.87,27.74Z"/><path class="cls-6" d="M37.93,15.24c-.61-.43-1.57,0-2.13.92s-.54,2,.07,2.45,1.57,0,2.14-.92S38.54,15.66,37.93,15.24Z"/><path class="cls-6" d="M48.21,15.24c.61-.43,1.56,0,2.13.92s.54,2-.07,2.45-1.57,0-2.14-.92S47.6,15.66,48.21,15.24Z"/></g></g></svg>