<svg xmlns="http://www.w3.org/2000/svg" viewBox="0 0 63 64.61"><defs><style>.cls-1{fill:#a8caf0;}.cls-2{fill:#93bae6;}.cls-3{fill:#fffbf0;opacity:0.4;}.cls-4{fill:#a87f00;}.cls-5{fill:#bd9b57;}.cls-6{fill:#fff;}</style></defs><g id="Capa_2" data-name="Capa 2"><g id="OBJECTS"><circle class="cls-1" cx="26.12" cy="27.33" r="25.35" transform="translate(-6.3 46.78) rotate(-77.25)"/><path class="cls-2" d="M49.21,16.87V17a29.1,29.1,0,0,1-29.1,29.1A28.93,28.93,0,0,1,5.64,42.26,25.35,25.35,0,0,0,49.21,16.87Z"/><path class="cls-3" d="M30.65,8.72a24.89,24.89,0,0,1,7,1A21,21,0,0,0,5.07,27.33a21.31,21.31,0,0,0,.7,5.4A24.89,24.89,0,0,1,30.65,8.72Z"/><path class="cls-4" d="M46,52.47a4.11,4.11,0,0,0-3.41-1.4h-33a4.11,4.11,0,0,0-3.41,1.4,6.14,6.14,0,0,0-.69,2.59H46.7A6.14,6.14,0,0,0,46,52.47Z"/><path class="cls-5" d="M48.38,55.2c-.51-.92-1.39-1.48-3.51-1.48H7.37c-2.12,0-3,.56-3.51,1.48-.77,1.43-1.41,7.57-1.41,7.57H49.79S49.15,56.63,48.38,55.2Z"/><path class="cls-4" d="M51.69,62.48a3.32,3.32,0,0,0-2.75-1.15H3.3A3.32,3.32,0,0,0,.55,62.48,5.05,5.05,0,0,0,0,64.61H52.24A5.05,5.05,0,0,0,51.69,62.48Z"/><circle class="cls-6" cx="48.44" cy="14.03" r="14.03"/><circle class="cls-6" cx="36.66" cy="27.83" r="7.08"/><circle class="cls-6" cx="54.18" cy="32.94" r="8.82"/></g></g></svg>