<svg xmlns="http://www.w3.org/2000/svg" viewBox="0 0 60.24 76.03"><defs><style>.cls-1{fill:#683ddb;}.cls-2{fill:#c1adf7;opacity:0.4;}.cls-3{fill:#473952;}.cls-4{fill:#31253b;}</style></defs><g id="Capa_2" data-name="Capa 2"><g id="OBJECTS"><path class="cls-1" d="M18.63,14.05a3.36,3.36,0,1,1-3.36-3.36A3.36,3.36,0,0,1,18.63,14.05Z"/><path class="cls-2" d="M15.71,13.21a1.43,1.43,0,1,1-1.43-1.43A1.43,1.43,0,0,1,15.71,13.21Z"/><path class="cls-1" d="M31.67,17.85a2.11,2.11,0,1,1-2.11-2.11A2.1,2.1,0,0,1,31.67,17.85Z"/><path class="cls-2" d="M29.84,17.33a.9.9,0,1,1-.9-.9A.9.9,0,0,1,29.84,17.33Z"/><path class="cls-1" d="M43,10.2a2.27,2.27,0,1,1-2.27-2.27A2.27,2.27,0,0,1,43,10.2Z"/><path class="cls-2" d="M41,9.63a1,1,0,1,1-1.94,0,1,1,0,1,1,1.94,0Z"/><path class="cls-1" d="M11.8,7.73a1.48,1.48,0,1,1-1.48-1.47A1.48,1.48,0,0,1,11.8,7.73Z"/><path class="cls-2" d="M10.52,7.37a.63.63,0,1,1-.63-.63A.63.63,0,0,1,10.52,7.37Z"/><path class="cls-1" d="M38.56,1.75A1.75,1.75,0,1,1,36.82,0,1.74,1.74,0,0,1,38.56,1.75Z"/><circle class="cls-2" cx="36.3" cy="1.31" r="0.74"/><path class="cls-1" d="M24,13.61a1.75,1.75,0,1,1-1.75-1.74A1.75,1.75,0,0,1,24,13.61Z"/><path class="cls-2" d="M22.47,13.18a.74.74,0,0,1-.74.74.74.74,0,1,1,0-1.48A.74.74,0,0,1,22.47,13.18Z"/><path class="cls-1" d="M37.26,9.44a3.52,3.52,0,1,1-3.52-3.51A3.53,3.53,0,0,1,37.26,9.44Z"/><path class="cls-2" d="M34.2,8.57a1.5,1.5,0,1,1-1.49-1.5A1.49,1.49,0,0,1,34.2,8.57Z"/><path class="cls-1" d="M22.93,7.73a2.47,2.47,0,1,1-2.46-2.46A2.46,2.46,0,0,1,22.93,7.73Z"/><path class="cls-2" d="M20.79,7.12a1,1,0,1,1-1.05-1A1,1,0,0,1,20.79,7.12Z"/><path class="cls-1" d="M10.54,28.83a3.16,3.16,0,1,1-3.16-3.16A3.16,3.16,0,0,1,10.54,28.83Z"/><path class="cls-1" d="M16.64,26.24a4,4,0,1,1-4-4A4,4,0,0,1,16.64,26.24Z"/><path class="cls-1" d="M34.49,27.83A5.54,5.54,0,1,1,29,22.29,5.54,5.54,0,0,1,34.49,27.83Z"/><path class="cls-1" d="M55.65,26.71A4.63,4.63,0,1,1,51,22.09,4.63,4.63,0,0,1,55.65,26.71Z"/><path class="cls-1" d="M57.1,28.83a3,3,0,1,1-3-3A3,3,0,0,1,57.1,28.83Z"/><path class="cls-1" d="M26.25,23.56a5.71,5.71,0,1,1-5.71-5.71A5.7,5.7,0,0,1,26.25,23.56Z"/><path class="cls-2" d="M13.71,24.9A1.7,1.7,0,1,1,12,23.21,1.7,1.7,0,0,1,13.71,24.9Z"/><path class="cls-1" d="M38.25,23.42a4,4,0,1,1-4-4A4,4,0,0,1,38.25,23.42Z"/><path class="cls-1" d="M49.29,26.92c0,4-3.83,7.2-8.55,7.2s-8.55-3.23-8.55-7.2,3.83-7.19,8.55-7.19S49.29,23,49.29,26.92Z"/><path class="cls-1" d="M55.1,32.27c0,4.07-10.62,7.37-23.73,7.37S7.64,36.34,7.64,32.27,18.27,24.9,31.37,24.9,55.1,28.2,55.1,32.27Z"/><path class="cls-2" d="M21.89,21.72a2.38,2.38,0,1,1-2.38-2.38A2.38,2.38,0,0,1,21.89,21.72Z"/><path class="cls-1" d="M45.83,19.44A4.84,4.84,0,1,1,41,14.6,4.83,4.83,0,0,1,45.83,19.44Z"/><path class="cls-2" d="M42.15,17.88a2,2,0,1,1-2-2A2,2,0,0,1,42.15,17.88Z"/><path class="cls-2" d="M35.44,22.09a1.7,1.7,0,1,1-1.7-1.7A1.7,1.7,0,0,1,35.44,22.09Z"/><rect class="cls-3" x="5.67" y="64.25" width="20.32" height="4.64" rx="1.6" transform="translate(-50.2 48.63) rotate(-61.43)"/><rect class="cls-3" x="42.1" y="56.41" width="4.64" height="20.32" rx="1.6" transform="translate(-26.43 29.35) rotate(-28.57)"/><path class="cls-4" d="M2.83,31.81A30.12,30.12,0,1,0,60.24,44.56a29.87,29.87,0,0,0-2.83-12.75Z"/><rect class="cls-3" x="0.16" y="27.56" width="59.93" height="5.42" rx="1.52"/><path class="cls-3" d="M31.33,68.85A25.33,25.33,0,0,1,7.39,36.17a23.65,23.65,0,0,0,32,31.32A24.68,24.68,0,0,1,31.33,68.85Z"/></g></g></svg>