<svg xmlns="http://www.w3.org/2000/svg" viewBox="0 0 86.98 86.98"><defs><style>.cls-1{fill:none;stroke:#c0a080;stroke-miterlimit:10;}</style></defs><g id="Capa_2" data-name="Capa 2"><g id="OBJECTS"><polyline class="cls-1" points="53.31 23.13 43.49 1.22 33.66 23.13"/><line class="cls-1" x1="43.49" y1="2.32" x2="43.49" y2="20.97"/><polyline class="cls-1" points="33.66 63.85 43.49 85.75 53.31 63.85"/><line class="cls-1" x1="43.49" y1="84.66" x2="43.49" y2="66.07"/><polyline class="cls-1" points="23.13 33.66 1.22 43.49 23.13 53.31"/><line class="cls-1" x1="2.32" y1="43.49" x2="20.97" y2="43.49"/><polyline class="cls-1" points="63.85 53.31 85.75 43.49 63.85 33.66"/><line class="cls-1" x1="84.66" y1="43.49" x2="66.07" y2="43.49"/><polyline class="cls-1" points="34.28 21.47 13.6 13.6 21.5 34.34"/><line class="cls-1" x1="14.38" y1="14.38" x2="27.56" y2="27.56"/><polyline class="cls-1" points="52.68 65.5 73.38 73.38 65.48 52.64"/><line class="cls-1" x1="72.6" y1="72.6" x2="59.46" y2="59.46"/><polyline class="cls-1" points="21.45 52.76 13.6 73.38 34.4 65.46"/><line class="cls-1" x1="14.38" y1="72.6" x2="27.56" y2="59.41"/><polyline class="cls-1" points="65.48 34.33 73.38 13.6 52.7 21.47"/><line class="cls-1" x1="72.6" y1="14.38" x2="59.46" y2="27.52"/><circle class="cls-1" cx="43.49" cy="43.49" r="22.47" transform="translate(-8.76 75.94) rotate(-76.85)"/><path class="cls-1" d="M57.79,43.55a14.3,14.3,0,1,1-14.3-14.29A14.3,14.3,0,0,1,57.79,43.55Z"/><polygon class="cls-1" points="43.49 29.4 46.67 39.21 56.99 39.21 48.65 45.27 51.83 55.08 43.49 49.02 35.15 55.08 38.33 45.27 29.99 39.21 40.3 39.21 43.49 29.4"/><line class="cls-1" x1="40.32" y1="39.21" x2="38.33" y2="45.27"/><line class="cls-1" x1="46.68" y1="39.21" x2="48.64" y2="45.27"/><line class="cls-1" x1="40.37" y1="39.21" x2="46.61" y2="39.21"/><line class="cls-1" x1="43.49" y1="49.02" x2="48.64" y2="45.27"/><line class="cls-1" x1="43.49" y1="49.02" x2="38.33" y2="45.27"/><line class="cls-1" x1="43.36" y1="23.99" x2="43.36" y2="26.16"/><line class="cls-1" x1="43.36" y1="60.95" x2="43.36" y2="63.12"/><line class="cls-1" x1="35.87" y1="25.48" x2="36.7" y2="27.48"/><line class="cls-1" x1="50.02" y1="59.63" x2="50.85" y2="61.63"/><line class="cls-1" x1="29.53" y1="29.72" x2="31.06" y2="31.25"/><line class="cls-1" x1="55.66" y1="55.86" x2="57.2" y2="57.39"/><line class="cls-1" x1="25.29" y1="36.07" x2="27.29" y2="36.9"/><line class="cls-1" x1="59.44" y1="50.21" x2="61.44" y2="51.04"/><line class="cls-1" x1="23.8" y1="43.55" x2="25.97" y2="43.55"/><line class="cls-1" x1="60.76" y1="43.55" x2="62.93" y2="43.55"/><line class="cls-1" x1="25.29" y1="51.04" x2="27.29" y2="50.21"/><line class="cls-1" x1="59.44" y1="36.9" x2="61.44" y2="36.07"/><line class="cls-1" x1="29.53" y1="57.39" x2="31.06" y2="55.86"/><line class="cls-1" x1="55.66" y1="31.25" x2="57.2" y2="29.72"/><line class="cls-1" x1="35.87" y1="61.63" x2="36.7" y2="59.63"/><line class="cls-1" x1="50.02" y1="27.48" x2="50.85" y2="25.48"/></g></g></svg>